# xmcd
#
# Track frame offsets:
#	150
#	14021
#	29449
#	42139
#	62067
#	72538
#	89498
#	103612
#	120915
#	135072
#	151220
#	169649
#
# Disc length: 2450 seconds
#
# Revision: 1
# Processed by: cddbd v1.5.2PL0 Copyright (c) Steve Scherf et al.
# Submitted via: audiograbber 1.83.01
#
DISCID=9409900c
DTITLE=Edith Piaf - Adieu mon coeur - CD 2: Reste
DYEAR=2008
DGENRE=Chanson
TTITLE0=Reste
TTITLE1=Va danser
TTITLE2=Y'en a un de trop
TTITLE3=Un homme comme les autres
TTITLE4=Tout fout le camp
TTITLE5=Regarde moi toujours comme ça
TTITLE6=Paris - Mediterranée
TTITLE7=Mon légionnaire
TTITLE8=Les gars qui marchaient
TTITLE9=Le petit homme
TTITLE10=Le disque usé
TTITLE11=Le brun et le blond
EXTD=10 CD Box
EXTT0=
EXTT1=
EXTT2=
EXTT3=
EXTT4=
EXTT5=
EXTT6=
EXTT7=
EXTT8=
EXTT9=
EXTT10=
EXTT11=
PLAYORDER=
